<svg width="326" height="326" viewBox="0 0 326 326" fill="none" xmlns="http://www.w3.org/2000/svg">
<path fill-rule="evenodd" clip-rule="evenodd" d="M162.765 89.8455C180.735 89.8406 198.047 96.6049 211.254 108.791C212.392 109.839 213.479 110.926 214.54 112.038C214.923 112.422 215.294 112.818 215.665 113.227C221.348 119.398 225.924 126.503 229.19 134.231C229.382 134.691 229.548 135.164 229.74 135.624C232.247 141.97 233.852 148.635 234.508 155.427C234.7 157.498 234.815 159.607 234.828 161.742C234.84 161.989 234.84 162.236 234.828 162.483C234.822 166.743 234.45 170.994 233.715 175.19C233.46 176.648 233.166 178.08 232.82 179.499C229.069 195.287 220.127 209.36 207.428 219.463C194.728 229.567 179.006 235.116 162.778 235.223C123.033 235.223 89.6159 202.625 89.6159 162.534C89.4497 162.534 89.6159 89.8455 89.6159 89.8455H162.765ZM162.765 95.8283C148.775 95.8379 135.157 100.337 123.915 108.663H127.251L128.734 109.507L131.534 110.108L131.751 111.22L136.2 111.386L135.599 109.942L131.675 109.737L132.595 108.868L132.276 107.807H128.696L132.531 104.866H136.277L138.067 107.308L140.981 107.474L142.746 105.749L144.024 106.413L141.608 108.804H138.412C138.59 109.567 138.685 110.347 138.693 111.131L142.758 111.016L143.18 109.942L145.98 109.775L146.312 108.114L144.663 107.832L145.213 106.337L146.491 105.953L150.889 106.17L148.46 108.395L148.856 110.108L151.413 110.491L151.26 107.385L153.676 106.107L157.958 105.608L164.171 108.382V110.76L166.153 111.258L165.156 113.15H162.356L161.525 115.311L155.133 113.777L160.17 111.079L158.252 109.43L153.906 109.98L153.522 110.376V110.466L152.244 111.744L150.186 111.923L150.352 112.959L151.068 113.265V113.611L149.38 113.841L149.265 114.825L147.655 114.915L147.36 112.959L144.484 113.841L138.578 117.318L139.243 119.772L140.892 120.859L144.19 121.319V125.154L145.711 124.912L147.118 121.958L150.62 120.833V116.334L152.576 114.838L157.294 115.963L156.872 118.89H158.15L161.614 117.177L161.781 121.102L164.337 122.662L164.235 124.988L161.819 125.819L161.985 126.599L164.887 127.877V129.488H164.043L160.374 128.35L160.221 127.162L161.295 126.407V125.333L160.144 125.039L159.85 126.037L157.83 126.356L157.626 126.279V126.561L156.923 126.676L156.348 125.5L155.696 125.206H154.251L153.599 125.755V126.944L154.877 127.366L156.156 127.532L155.875 127.66L154.762 128.938L154.277 128.325L153.203 128.031L150.275 130.818L150.659 131.124L146.325 133.541L142.26 137.823L141.978 139.715L137.9 142.425L135.881 144.471L136.098 148.574L133.298 147.296V144.893H125.283L121.243 146.951L119.492 150.211L118.801 152.768L119.926 155.324L123.122 155.708L128.236 152.295L128.683 153.995L127.136 156.935L130.972 157.6L131.355 163.595L136.635 164.49L139.984 160.655L144.062 161.486L145.494 163.493L149.329 163.263L149.431 162.1L151.579 163.148L153.995 166.983H158.163L159.71 169.706L159.927 173.017L164.555 174.794H170.371L172.084 177.619L174.641 178.45L174.143 180.777L171.305 184.331L170.486 192.359L167.93 194.405L164.095 194.277L162.816 196.501L163.749 200.656L159.62 205.987L158.342 208.416L154.417 210.333L151.86 210.717L151.745 211.829L153.561 212.353L153.407 213.491L151.784 215.063L152.768 216.342L154.724 216.406L154.622 217.927L154.098 219.422L153.931 220.701L156.821 223.168L156.437 224.447L152.5 224.383L148.588 220.931L145.532 215.523L145.967 210.295L143.628 207.099L144.561 201.832L143.193 201.448V190.032C143.193 190.032 139.358 187.092 139.115 187.092C138.872 187.092 137.082 186.594 137.082 186.594L136.699 184.433L131.7 178.041L132.186 175.778L132.352 172.058L135.817 169.617L135.318 165.462L130.268 165.078L126.305 160.527L123.506 159.76L121.691 159.415L121.908 157.753L119.607 157.421V158.52L113.777 157.025L111.502 153.407L112.448 151.668L108.792 146.286L108.165 142.349H106.682L107.181 146.184L109.738 150.109L109.456 151.668L107.309 151.336L104.675 146.797V141.518L101.927 140.239V134.359L104.292 131.47L107.04 128.095L106.938 126.893C105.992 128.376 105.11 129.897 104.292 131.47L101.927 134.359V136.443C98.4316 144.701 96.636 153.579 96.647 162.547C96.647 199.339 126.318 229.266 162.791 229.266C172.643 229.247 182.366 227.015 191.241 222.736C200.116 218.457 207.916 212.239 214.067 204.542H211.893V200.119L209.337 196.693V191.349L207.406 189.419L207.253 187.207L209.694 182.49L205.054 174.232L205.604 168.619L201.423 168.185L199.889 166.638H197.077L195.658 167.916H190.736L190.57 168.351H187.821L181.532 161.179L181.596 155.529L182.631 155.145L183.027 152.972H181.532L180.918 150.709L188.23 145.378V141.543L191.81 139.549L193.254 139.69H196.208L198.509 138.411L205.923 137.823V141.658L211.791 143.167L212.942 143.985H214.015V141.914L217.39 141.582L220.612 143.985H225.879L226.237 143.653C225.713 141.863 225.112 140.099 224.447 138.373H221.008L219.27 136.468L218.937 133.387L217.173 134.359L216.214 138.117L213.657 135.382L213.555 132.825L211.088 130.677L210.167 129.769H207.304L208.212 132.326L211.65 134.257L212.251 134.909L211.51 135.279V137.325L209.822 138.028L208.391 137.708L207.496 136.43L209.822 136.558L210.462 135.701L205.348 132.186L204.952 130.69L202.855 132.607L200.72 132.16L197.486 136.404L196.86 138.066L194.789 138.258H191.759L189.931 137.401L189.381 133.732L190.046 131.981L193.165 131.291L196.565 131.981L196.975 130.076L195.53 129.731L196.029 126.778L199.455 126.241L201.845 122.828L204.313 122.419L206.55 122.738H207.368L206.92 119.542L204.197 120.655L203.251 118.251L201.679 118.034L201.385 116.398L202.663 114.991L205.719 113.713L206.499 112.294C194.431 101.637 178.864 95.7941 162.765 95.8794V95.8283ZM226.927 147.449L227.4 148.344C227.311 147.961 227.221 147.577 227.144 147.207L226.927 147.449ZM221.264 132.735V135.688L222.542 135.509H223.22C222.734 134.397 222.223 133.311 221.673 132.237L221.264 132.735ZM139 132.646L138.795 133.144L137.798 133.234L137.479 134.691H139.575L140.521 133.732V132.454L139 132.646ZM133.758 131.444L133.516 133.106L134.666 133.732L137.466 129.769H135.28L133.758 131.444ZM141.557 132.428L142.132 133.272H144.228V131.994L141.672 131.24H141.505L141.557 132.428ZM138.795 131.981L140.074 131.751L141.071 131.112V129.833H138.846L138.795 131.981ZM142.285 130.204L143.091 130.882L143.896 130.204L142.886 129.565L142.285 130.204ZM134.129 127.839L133.758 128.798L135.241 129.207H139.192V127.839H138.629V127.072H136.072L134.129 127.839ZM139.895 129.207L141.263 128.875L139.895 127.596V129.207ZM130.013 122.815L131.074 125.027L132.761 124.49L133.298 122.368L131.739 121.984L130.013 122.815ZM210.845 120.003L208.007 121.46L208.288 122.406H212.827L214.105 120.463C213.057 119.184 211.97 117.906 210.832 116.717L210.845 120.003ZM127.75 114.889C127.622 114.889 126.178 115.132 126.178 115.132L123.877 115.797L124.503 116.551L127.75 116.334C127.75 116.334 127.903 114.979 127.84 114.979L127.75 114.889ZM125.321 111.77H123.902V113.227H127.149L127.84 112.307V111.271H125.475L125.321 111.77Z" fill="#0B0517"/>
<path d="M325.771 162.994C325.765 190.751 318.663 218.044 305.14 242.284C291.617 266.523 272.122 286.902 248.506 301.487C224.89 316.071 197.938 324.376 170.209 325.612C142.48 326.849 114.896 320.976 90.0754 308.551V227.885C100.908 240.06 114.617 249.328 129.951 254.846C145.284 260.364 161.756 261.955 177.862 259.474C193.969 256.993 209.198 250.52 222.161 240.644C235.123 230.768 245.408 217.804 252.075 202.934C258.743 188.064 261.582 171.762 260.333 155.513C259.084 139.265 253.787 123.588 244.925 109.911C236.064 96.235 223.919 84.9948 209.599 77.2159C195.279 69.437 179.24 65.3669 162.943 65.3768H90.0754C90.0754 17.6036 61.2734 0.1792 61.2734 0.1792H162.994C184.374 0.177519 205.545 4.38799 225.297 12.5701C245.05 20.7522 262.996 32.7456 278.112 47.8652C293.228 62.9848 305.218 80.9344 313.395 100.689C321.572 120.443 325.778 141.614 325.771 162.994Z" fill="#0B0517"/>
<path d="M65.1976 64.9292V292.75C44.9521 277.611 28.5172 257.957 17.1991 235.352C5.88109 212.747 -0.00797605 187.814 8.10761e-06 162.534C8.10761e-06 159.619 0.0767112 156.73 0.230117 153.841V1.13275e-05C8.75996 -0.00502697 17.2072 1.6707 25.0892 4.93144C32.9712 8.19217 40.1335 12.974 46.1668 19.0038C52.2 25.0335 56.9861 32.1929 60.2515 40.073C63.5169 47.9531 65.1976 56.3993 65.1976 64.9292Z" fill="#0084FF"/>
</svg>
