<svg width="1397" height="255" viewBox="0 0 1397 255" fill="none" xmlns="http://www.w3.org/2000/svg">
<path fill-rule="evenodd" clip-rule="evenodd" d="M127.32 70.28C141.377 70.2762 154.919 75.5675 165.25 85.1C166.14 85.92 166.99 86.77 167.82 87.64C168.12 87.94 168.41 88.25 168.7 88.57C173.146 93.3968 176.725 98.9552 179.28 105C179.43 105.36 179.56 105.73 179.71 106.09C181.672 111.054 182.927 116.268 183.44 121.58C183.59 123.2 183.68 124.85 183.69 126.52C183.7 126.713 183.7 126.907 183.69 127.1C183.685 130.432 183.394 133.758 182.82 137.04C182.62 138.18 182.39 139.3 182.12 140.41C179.185 152.76 172.191 163.769 162.257 171.672C152.323 179.575 140.024 183.916 127.33 184C96.24 184 70.1 158.5 70.1 127.14C69.97 127.14 70.1 70.28 70.1 70.28H127.32ZM127.32 74.96C116.376 74.9676 105.724 78.4868 96.93 85H99.54L100.7 85.66L102.89 86.13L103.06 87L106.54 87.13L106.07 86L103 85.84L103.72 85.16L103.47 84.33H100.67L103.67 82.03H106.6L108 83.94L110.28 84.07L111.66 82.72L112.66 83.24L110.77 85.11H108.27C108.41 85.7068 108.483 86.3172 108.49 86.93L111.67 86.84L112 86L114.19 85.87L114.45 84.57L113.16 84.35L113.59 83.18L114.59 82.88L118.03 83.05L116.13 84.79L116.44 86.13L118.44 86.43L118.32 84L120.21 83L123.56 82.61L128.42 84.78V86.64L129.97 87.03L129.19 88.51H127L126.35 90.2L121.35 89L125.29 86.89L123.79 85.6L120.39 86.03L120.09 86.34V86.41L119.09 87.41L117.48 87.55L117.61 88.36L118.17 88.6V88.87L116.85 89.05L116.76 89.82L115.5 89.89L115.27 88.36L113.02 89.05L108.4 91.77L108.92 93.69L110.21 94.54L112.79 94.9V97.9L113.98 97.71L115.08 95.4L117.82 94.52V91L119.35 89.83L123.04 90.71L122.71 93H123.71L126.42 91.66L126.55 94.73L128.55 95.95L128.47 97.77L126.58 98.42L126.71 99.03L128.98 100.03V101.29H128.32L125.45 100.4L125.33 99.47L126.17 98.88V98.04L125.27 97.81L125.04 98.59L123.46 98.84L123.3 98.78V99L122.75 99.09L122.3 98.17L121.79 97.94H120.66L120.15 98.37V99.3L121.15 99.63L122.15 99.76L121.93 99.86L121.06 100.86L120.68 100.38L119.84 100.15L117.55 102.33L117.85 102.57L114.46 104.46L111.28 107.81L111.06 109.29L107.87 111.41L106.29 113.01L106.46 116.22L104.27 115.22V113.34H98L94.84 114.95L93.47 117.5L92.93 119.5L93.81 121.5L96.31 121.8L100.31 119.13L100.66 120.46L99.45 122.76L102.45 123.28L102.75 127.97L106.88 128.67L109.5 125.67L112.69 126.32L113.81 127.89L116.81 127.71L116.89 126.8L118.57 127.62L120.46 130.62H123.72L124.93 132.75L125.1 135.34L128.72 136.73H133.27L134.61 138.94L136.61 139.59L136.22 141.41L134 144.19L133.36 150.47L131.36 152.07L128.36 151.97L127.36 153.71L128.09 156.96L124.86 161.13L123.86 163.03L120.79 164.53L118.79 164.83L118.7 165.7L120.12 166.11L120 167L118.73 168.23L119.5 169.23L121.03 169.28L120.95 170.47L120.54 171.64L120.41 172.64L122.67 174.57L122.37 175.57L119.29 175.52L116.23 172.82L113.84 168.59L114.18 164.5L112.35 162L113.08 157.88L112.01 157.58V148.65C112.01 148.65 109.01 146.35 108.82 146.35C108.63 146.35 107.23 145.96 107.23 145.96L106.93 144.27L103.02 139.27L103.4 137.5L103.53 134.59L106.24 132.68L105.85 129.43L101.9 129.13L98.8 125.57L96.61 124.97L95.19 124.7L95.36 123.4L93.56 123.14V124L89 122.83L87.22 120L87.96 118.64L85.1 114.43L84.61 111.35H83.45L83.84 114.35L85.84 117.42L85.62 118.64L83.94 118.38L81.88 114.83V110.7L79.73 109.7V105.1L81.58 102.84L83.73 100.2L83.65 99.26C82.91 100.42 82.22 101.61 81.58 102.84L79.73 105.1V106.73C76.996 113.19 75.5914 120.135 75.6 127.15C75.6 155.93 98.81 179.34 127.34 179.34C135.047 179.325 142.652 177.58 149.595 174.232C156.537 170.885 162.639 166.021 167.45 160H165.75V156.54L163.75 153.86V149.68L162.24 148.17L162.12 146.44L164.03 142.75L160.4 136.29L160.83 131.9L157.56 131.56L156.36 130.35H154.16L153.05 131.35H149.2L149.07 131.69H146.92L142 126.08L142.05 121.66L142.86 121.36L143.17 119.66H142L141.52 117.89L147.24 113.72V110.72L150.04 109.16L151.17 109.27H153.48L155.28 108.27L161.08 107.81V110.81L165.67 111.99L166.57 112.63H167.41V111.01L170.05 110.75L172.57 112.63H176.69L176.97 112.37C176.56 110.97 176.09 109.59 175.57 108.24H172.88L171.52 106.75L171.26 104.34L169.88 105.1L169.13 108.04L167.13 105.9L167.05 103.9L165.12 102.22L164.4 101.51H162.16L162.87 103.51L165.56 105.02L166.03 105.53L165.45 105.82V107.42L164.13 107.97L163.01 107.72L162.31 106.72L164.13 106.82L164.63 106.15L160.63 103.4L160.32 102.23L158.68 103.73L157.01 103.38L154.48 106.7L153.99 108L152.37 108.15H150L148.57 107.48L148.14 104.61L148.66 103.24L151.1 102.7L153.76 103.24L154.08 101.75L152.95 101.48L153.34 99.17L156.02 98.75L157.89 96.08L159.82 95.76L161.57 96.01H162.21L161.86 93.51L159.73 94.38L158.99 92.5L157.76 92.33L157.53 91.05L158.53 89.95L160.92 88.95L161.53 87.84C152.091 79.5038 139.913 74.9333 127.32 75V74.96ZM177.51 115.34L177.88 116.04C177.81 115.74 177.74 115.44 177.68 115.15L177.51 115.34ZM173.08 103.83V106.14L174.08 106H174.61C174.23 105.13 173.83 104.28 173.4 103.44L173.08 103.83ZM108.73 103.76L108.57 104.15L107.79 104.22L107.54 105.36H109.18L109.92 104.61V103.61L108.73 103.76ZM104.63 102.82L104.44 104.12L105.34 104.61L107.53 101.51H105.82L104.63 102.82ZM110.73 103.59L111.18 104.25H112.82V103.25L110.82 102.66H110.69L110.73 103.59ZM108.57 103.24L109.57 103.06L110.35 102.56V101.56H108.61L108.57 103.24ZM111.3 101.85L111.93 102.38L112.56 101.85L111.77 101.35L111.3 101.85ZM104.92 100L104.63 100.75L105.79 101.07H108.88V100H108.44V99.4H106.44L104.92 100ZM109.43 101.07L110.5 100.81L109.43 99.81V101.07ZM101.7 96.07L102.53 97.8L103.85 97.38L104.27 95.72L103.05 95.42L101.7 96.07ZM164.93 93.87L162.71 95.01L162.93 95.75H166.48L167.48 94.23C166.66 93.23 165.81 92.23 164.92 91.3L164.93 93.87ZM99.93 89.87C99.83 89.87 98.7 90.06 98.7 90.06L96.9 90.58L97.39 91.17L99.93 91C99.93 91 100.05 89.94 100 89.94L99.93 89.87ZM98.03 87.43H96.92V88.57H99.46L100 87.85V87.04H98.15L98.03 87.43Z" fill="#EADFFF"/>
<path d="M254.83 127.5C254.825 149.212 249.27 170.562 238.692 189.523C228.113 208.484 212.863 224.426 194.39 235.834C175.917 247.242 154.834 253.739 133.143 254.706C111.453 255.673 89.8753 251.079 70.46 241.36V178.26C78.9339 187.783 89.6572 195.034 101.652 199.35C113.647 203.666 126.531 204.911 139.13 202.97C151.729 201.03 163.642 195.966 173.782 188.241C183.922 180.515 191.967 170.374 197.182 158.743C202.398 147.111 204.619 134.358 203.642 121.648C202.665 108.938 198.521 96.6747 191.589 85.9766C184.657 75.2785 175.157 66.4861 163.956 60.4012C152.754 54.3162 140.208 51.1324 127.46 51.1401H70.46C70.46 13.7701 47.93 0.140137 47.93 0.140137H127.5C144.224 0.138823 160.785 3.43241 176.236 9.83275C191.687 16.2331 205.725 25.6148 217.549 37.4419C229.374 49.269 238.752 63.3098 245.149 78.7623C251.546 94.2147 254.835 110.776 254.83 127.5Z" fill="#EADFFF"/>
<path d="M51 50.79V229C35.1632 217.157 22.3072 201.784 13.4538 184.101C4.60041 166.419 -0.00623917 146.915 6.34207e-06 127.14C6.34207e-06 124.86 0.0600064 122.6 0.180006 120.34V8.86082e-06C6.85237 -0.00393229 13.4601 1.30688 19.6257 3.85755C25.7913 6.40823 31.3939 10.1488 36.1134 14.8654C40.8328 19.5821 44.5767 25.1825 47.131 31.3466C49.6853 37.5107 51 44.1176 51 50.79Z" fill="#0084FF"/>
<path fill-rule="evenodd" clip-rule="evenodd" d="M585.198 97.2529C590.387 97.2529 595.107 98.8156 599.358 101.941C602.669 104.293 605.482 107.418 607.799 111.315V98.6592H633.494V193.093C633.494 206.597 629.68 217.037 622.053 224.414C614.488 231.854 603.735 235.574 589.794 235.574C582.042 235.574 575.101 234.199 568.975 231.448C562.91 228.76 558.19 224.946 554.814 220.007L572.069 204.158C574.257 206.471 576.884 208.285 579.947 209.598C583.01 210.91 586.199 211.567 589.512 211.567C594.701 211.567 599.046 210.129 602.547 207.253C606.048 204.377 607.799 200.283 607.799 194.969V183.786C605.889 187.645 603.265 190.748 599.922 193.093C595.796 195.969 590.887 197.406 585.198 197.406C574.82 197.406 566.756 193.749 561.004 186.435C555.315 179.057 552.47 168.68 552.47 155.301V139.733C552.47 126.23 555.315 115.789 561.004 108.412C566.756 100.972 574.82 97.253 585.198 97.2529ZM593.357 121.072C588.544 121.072 584.792 122.729 582.104 126.042C579.478 129.293 578.165 133.888 578.165 139.827V155.301C578.165 161.115 579.478 165.616 582.104 168.805C584.792 171.993 588.544 173.587 593.357 173.587C596.421 173.587 599.015 172.993 601.141 171.806C603.329 170.618 604.985 168.898 606.11 166.647C607.236 164.397 607.799 161.678 607.799 158.489V136.639L607.792 136.023C607.726 132.976 607.165 130.368 606.11 128.199C604.985 125.886 603.329 124.135 601.141 122.947C599.015 121.697 596.421 121.072 593.357 121.072Z" fill="#EADFFF"/>
<path fill-rule="evenodd" clip-rule="evenodd" d="M789.04 97.2529C801.856 97.2529 811.766 100.409 818.768 106.724C825.77 113.038 829.27 121.947 829.271 133.45V196H805.92V187.006C805.141 188.236 804.141 189.359 802.919 190.373C799.981 192.749 796.355 194.531 792.041 195.719C787.79 196.844 783.382 197.406 778.818 197.406C768.44 197.406 760.657 194.937 755.468 189.998C750.279 185.059 747.685 177.494 747.685 167.304C747.685 157.614 750.56 150.393 756.312 145.642C762.126 140.828 770.816 138.421 782.382 138.421H805.92V134.295C805.92 129.794 804.42 126.324 801.419 123.886C798.418 121.448 794.167 120.228 788.665 120.228C785.039 120.228 781.444 120.822 777.881 122.01C774.317 123.135 771.16 124.791 768.409 126.979L752.467 111.319C756.343 106.881 761.47 103.442 767.847 101.004C774.223 98.5032 781.288 97.2529 789.04 97.2529ZM782.476 158.021C778.6 158.021 775.693 158.802 773.755 160.364C771.817 161.865 770.848 164.178 770.848 167.304C770.848 170.492 772.067 172.869 774.505 174.432C777.006 175.932 780.694 176.682 785.57 176.682C792.385 176.682 797.48 175.901 800.856 174.338C804.232 172.775 805.92 170.336 805.92 167.022V158.021H782.476Z" fill="#EADFFF"/>
<path fill-rule="evenodd" clip-rule="evenodd" d="M1132.19 97.2529C1145.57 97.2529 1155.92 100.91 1163.23 108.225C1170.55 115.539 1174.21 125.855 1174.21 139.171V155.301C1174.21 168.68 1170.55 179.057 1163.23 186.435C1155.92 193.749 1145.57 197.406 1132.19 197.406C1118.81 197.406 1108.47 193.718 1101.15 186.341C1093.84 178.901 1090.18 168.461 1090.18 155.02V139.171C1090.18 125.855 1093.84 115.539 1101.15 108.225C1108.47 100.91 1118.81 97.253 1132.19 97.2529ZM1132.1 122.01C1126.97 122.01 1122.97 123.51 1120.1 126.511C1117.28 129.512 1115.88 133.732 1115.88 139.171V155.301C1115.88 160.802 1117.28 165.085 1120.1 168.148C1122.97 171.149 1126.97 172.649 1132.1 172.649C1137.29 172.649 1141.32 171.149 1144.2 168.148C1147.07 165.085 1148.51 160.802 1148.51 155.301V139.171C1148.51 133.732 1147.07 129.512 1144.2 126.511C1141.32 123.51 1137.29 122.01 1132.1 122.01Z" fill="#EADFFF"/>
<path fill-rule="evenodd" clip-rule="evenodd" d="M1396.24 196H1370.54V183.788C1368.64 187.646 1366.01 190.748 1362.67 193.093C1358.54 195.969 1353.63 197.406 1347.95 197.406C1337.57 197.406 1329.5 193.749 1323.75 186.435C1318.06 179.057 1315.22 168.68 1315.22 155.301V139.733C1315.22 126.23 1318.06 115.789 1323.75 108.412C1329.5 100.973 1337.57 97.2529 1347.95 97.2529C1353.13 97.253 1357.85 98.8155 1362.11 101.941C1365.42 104.293 1368.23 107.418 1370.54 111.315V59.6475H1396.24V196ZM1356.1 121.072C1351.29 121.072 1347.54 122.729 1344.85 126.042C1342.22 129.293 1340.91 133.888 1340.91 139.827V155.301C1340.91 161.115 1342.22 165.616 1344.85 168.805C1347.54 171.993 1351.29 173.587 1356.1 173.587C1359.17 173.587 1361.76 172.993 1363.89 171.806C1366.07 170.618 1367.73 168.898 1368.86 166.647C1369.98 164.397 1370.54 161.678 1370.54 158.489V136.639C1370.54 133.325 1369.98 130.512 1368.86 128.199C1367.73 125.886 1366.07 124.135 1363.89 122.947C1361.76 121.697 1359.17 121.072 1356.1 121.072Z" fill="#EADFFF"/>
<path d="M723.719 98.6592H735.628V120.604H723.719V164.304C723.719 166.617 724.187 168.429 725.125 169.742C726.063 171.055 727.439 171.712 729.252 171.712H735.628V196.469H722.688C713.997 196.469 707.714 194.249 703.838 189.811C699.962 185.372 698.023 178.995 698.023 170.68V120.604H687.989V98.6592H698.023V70.3389H723.719V98.6592Z" fill="#EADFFF"/>
<path d="M374.417 196H348.722V98.6592H374.417V196Z" fill="#EADFFF"/>
<path fill-rule="evenodd" clip-rule="evenodd" d="M439.551 59.6475C456.681 59.6475 469.904 63.9302 479.219 72.4951C488.596 80.9976 493.285 93.0014 493.285 108.506V147.142C493.285 156.832 491.284 165.366 487.283 172.743C483.282 180.058 477.281 185.778 469.278 189.904C461.339 193.968 451.398 196 439.457 196H394.444V59.6475H439.551ZM420.14 171.243H440.113C448.553 171.243 455.087 169.211 459.713 165.147C464.339 161.021 466.652 155.27 466.652 147.893V107.756C466.652 100.316 464.339 94.5647 459.713 90.501C455.087 86.4373 448.553 84.4053 440.113 84.4053H420.14V171.243Z" fill="#EADFFF"/>
<path d="M537.132 196H511.437V98.6592H537.132V196Z" fill="#EADFFF"/>
<path d="M677.34 196H651.646V98.6592H677.34V196Z" fill="#EADFFF"/>
<path d="M874.523 163.834C874.523 166.147 875.18 167.961 876.493 169.273C877.869 170.586 879.807 171.243 882.308 171.243H886.621V196H873.492C865.678 196 859.614 193.749 855.3 189.248C850.986 184.747 848.829 178.401 848.829 170.211V59.6475H874.523V163.834Z" fill="#EADFFF"/>
<path d="M976.377 150.611L1002.45 59.6475H1023.08L1049.15 150.611L1066.68 59.6475H1093.13L1061.71 196H1037.52L1013.33 100.723L988.006 196H963.811L932.396 59.6475H958.841L976.377 150.611Z" fill="#EADFFF"/>
<path d="M1242.06 97.2529C1246.12 97.253 1249.78 97.9088 1253.03 99.2217C1256.34 100.472 1259.22 102.348 1261.66 104.849L1246.65 125.761C1245.47 124.51 1243.93 123.572 1242.06 122.947C1240.25 122.322 1238.15 122.01 1235.78 122.01C1230.59 122.01 1226.55 123.697 1223.68 127.073C1220.87 130.387 1219.46 135.014 1219.46 140.953V196H1191.89V98.6592H1219.46V111.881C1221.81 107.887 1224.62 104.636 1227.9 102.129C1232.21 98.878 1236.93 97.2529 1242.06 97.2529Z" fill="#EADFFF"/>
<path d="M1293.78 163.834C1293.78 166.147 1294.44 167.961 1295.75 169.273C1297.13 170.586 1299.07 171.243 1301.57 171.243H1305.88V196H1292.75C1284.94 196 1278.87 193.749 1274.56 189.248C1270.24 184.747 1268.09 178.401 1268.09 170.211V59.6475H1293.78V163.834Z" fill="#EADFFF"/>
<path d="M374.417 85.3428H348.722V59.6475H374.417V85.3428Z" fill="#EADFFF"/>
<path d="M537.132 85.3428H511.437V59.6475H537.132V85.3428Z" fill="#EADFFF"/>
<path d="M677.34 85.3428H651.646V59.6475H677.34V85.3428Z" fill="#EADFFF"/>
</svg>
