<svg width="923" height="564" viewBox="0 0 923 564" fill="none" xmlns="http://www.w3.org/2000/svg">
<path fill-rule="evenodd" clip-rule="evenodd" d="M461.575 89.8455C479.545 89.8406 496.857 96.6049 510.064 108.791C511.201 109.839 512.288 110.926 513.349 112.038C513.733 112.422 514.103 112.818 514.474 113.227C520.158 119.398 524.734 126.503 527.999 134.231C528.191 134.691 528.357 135.164 528.549 135.624C531.057 141.97 532.662 148.635 533.318 155.427C533.509 157.498 533.624 159.607 533.637 161.742C533.65 161.989 533.65 162.236 533.637 162.483C533.631 166.743 533.259 170.994 532.525 175.19C532.269 176.648 531.975 178.08 531.63 179.499C527.878 195.287 518.937 209.36 506.237 219.463C493.538 229.567 477.815 235.116 461.587 235.223C421.842 235.223 388.425 202.625 388.425 162.534C388.259 162.534 388.425 89.8455 388.425 89.8455H461.575ZM461.575 95.8283C447.585 95.8379 433.967 100.337 422.724 108.663H426.061L427.544 109.507L430.344 110.108L430.561 111.22L435.01 111.386L434.409 109.942L430.484 109.737L431.405 108.868L431.085 107.807H427.506L431.341 104.866H435.086L436.876 107.308L439.791 107.474L441.555 105.749L442.833 106.413L440.417 108.804H437.221C437.4 109.567 437.494 110.347 437.503 111.131L441.568 111.016L441.99 109.942L444.789 109.775L445.122 108.114L443.473 107.832L444.022 106.337L445.301 105.953L449.698 106.17L447.269 108.395L447.666 110.108L450.223 110.491L450.069 107.385L452.485 106.107L456.768 105.608L462.981 108.382V110.76L464.962 111.258L463.965 113.15H461.165L460.335 115.311L453.943 113.777L458.979 111.079L457.062 109.43L452.715 109.98L452.332 110.376V110.466L451.053 111.744L448.995 111.923L449.161 112.959L449.877 113.265V113.611L448.19 113.841L448.075 114.825L446.464 114.915L446.17 112.959L443.294 113.841L437.388 117.318L438.052 119.772L439.701 120.859L443 121.319V125.154L444.521 124.912L445.927 121.958L449.43 120.833V116.334L451.386 114.838L456.103 115.963L455.681 118.89H456.96L460.424 117.177L460.59 121.102L463.147 122.662L463.045 124.988L460.629 125.819L460.795 126.599L463.697 127.877V129.488H462.853L459.184 128.35L459.031 127.162L460.104 126.407V125.333L458.954 125.039L458.66 126.037L456.64 126.356L456.435 126.279V126.561L455.732 126.676L455.157 125.5L454.505 125.206H453.061L452.409 125.755V126.944L453.687 127.366L454.965 127.532L454.684 127.66L453.572 128.938L453.086 128.325L452.012 128.031L449.085 130.818L449.468 131.124L445.135 133.541L441.069 137.823L440.788 139.715L436.71 142.425L434.69 144.471L434.907 148.574L432.108 147.296V144.893H424.092L420.053 146.951L418.301 150.211L417.611 152.768L418.736 155.324L421.932 155.708L427.045 152.295L427.493 153.995L425.946 156.935L429.781 157.6L430.165 163.595L435.444 164.49L438.794 160.655L442.872 161.486L444.304 163.493L448.139 163.263L448.241 162.1L450.389 163.148L452.805 166.983H456.972L458.519 169.706L458.737 173.017L463.364 174.794H469.181L470.894 177.619L473.451 178.45L472.952 180.777L470.114 184.331L469.296 192.359L466.739 194.405L462.904 194.277L461.626 196.501L462.559 200.656L458.43 205.987L457.151 208.416L453.227 210.333L450.67 210.717L450.555 211.829L452.37 212.353L452.217 213.491L450.593 215.063L451.578 216.342L453.534 216.406L453.431 217.927L452.907 219.422L452.741 220.701L455.63 223.168L455.247 224.447L451.309 224.383L447.397 220.931L444.342 215.523L444.777 210.295L442.437 207.099L443.37 201.832L442.003 201.448V190.032C442.003 190.032 438.167 187.092 437.924 187.092C437.682 187.092 435.892 186.594 435.892 186.594L435.508 184.433L430.51 178.041L430.996 175.778L431.162 172.058L434.626 169.617L434.128 165.462L429.078 165.078L425.115 160.527L422.315 159.76L420.5 159.415L420.717 157.753L418.416 157.421V158.52L412.587 157.025L410.311 153.407L411.257 151.668L407.601 146.286L406.975 142.349H405.492L405.99 146.184L408.547 150.109L408.266 151.668L406.118 151.336L403.485 146.797V141.518L400.736 140.239V134.359L403.101 131.47L405.85 128.095L405.748 126.893C404.802 128.376 403.919 129.897 403.101 131.47L400.736 134.359V136.443C397.241 144.701 395.446 153.579 395.457 162.547C395.457 199.339 425.128 229.266 461.6 229.266C471.453 229.247 481.175 227.015 490.05 222.736C498.925 218.457 506.726 212.239 512.876 204.542H510.703V200.119L508.146 196.693V191.349L506.216 189.419L506.062 187.207L508.504 182.49L503.864 174.232L504.413 168.619L500.233 168.185L498.699 166.638H495.886L494.467 167.916H489.546L489.379 168.351H486.631L480.341 161.179L480.405 155.529L481.441 155.145L481.837 152.972H480.341L479.728 150.709L487.04 145.378V141.543L490.619 139.549L492.064 139.69H495.017L497.318 138.411L504.733 137.823V141.658L510.601 143.167L511.751 143.985H512.825V141.914L516.2 141.582L519.421 143.985H524.688L525.046 143.653C524.522 141.863 523.921 140.099 523.257 138.373H519.818L518.079 136.468L517.747 133.387L515.983 134.359L515.024 138.117L512.467 135.382L512.365 132.825L509.897 130.677L508.977 129.769H506.113L507.021 132.326L510.46 134.257L511.061 134.909L510.319 135.279V137.325L508.632 138.028L507.2 137.708L506.305 136.43L508.632 136.558L509.271 135.701L504.158 132.186L503.761 130.69L501.665 132.607L499.53 132.16L496.295 136.404L495.669 138.066L493.598 138.258H490.568L488.74 137.401L488.191 133.732L488.855 131.981L491.975 131.291L495.375 131.981L495.784 130.076L494.34 129.731L494.838 126.778L498.264 126.241L500.655 122.828L503.122 122.419L505.359 122.738H506.177L505.73 119.542L503.007 120.655L502.061 118.251L500.489 118.034L500.195 116.398L501.473 114.991L504.528 113.713L505.308 112.294C493.241 101.637 477.674 95.7941 461.575 95.8794V95.8283ZM525.737 147.449L526.21 148.344C526.12 147.961 526.031 147.577 525.954 147.207L525.737 147.449ZM520.073 132.735V135.688L521.352 135.509H522.029C521.544 134.397 521.032 133.311 520.483 132.237L520.073 132.735ZM437.809 132.646L437.605 133.144L436.608 133.234L436.288 134.691H438.385L439.331 133.732V132.454L437.809 132.646ZM432.568 131.444L432.325 133.106L433.476 133.732L436.275 129.769H434.089L432.568 131.444ZM440.366 132.428L440.941 133.272H443.038V131.994L440.481 131.24H440.315L440.366 132.428ZM437.605 131.981L438.883 131.751L439.88 131.112V129.833H437.656L437.605 131.981ZM441.095 130.204L441.9 130.882L442.706 130.204L441.696 129.565L441.095 130.204ZM432.939 127.839L432.568 128.798L434.051 129.207H438.001V127.839H437.439V127.072H434.882L432.939 127.839ZM438.704 129.207L440.072 128.875L438.704 127.596V129.207ZM428.822 122.815L429.883 125.027L431.571 124.49L432.108 122.368L430.548 121.984L428.822 122.815ZM509.655 120.003L506.817 121.46L507.098 122.406H511.636L512.914 120.463C511.866 119.184 510.78 117.906 509.642 116.717L509.655 120.003ZM426.56 114.889C426.432 114.889 424.987 115.132 424.987 115.132L422.686 115.797L423.313 116.551L426.56 116.334C426.56 116.334 426.713 114.979 426.649 114.979L426.56 114.889ZM424.131 111.77H422.712V113.227H425.959L426.649 112.307V111.271H424.284L424.131 111.77Z" fill="#EADFFF"/>
<path d="M624.581 162.994C624.575 190.751 617.473 218.044 603.95 242.284C590.427 266.523 570.932 286.902 547.316 301.487C523.7 316.071 496.747 324.376 469.019 325.612C441.29 326.849 413.705 320.976 388.885 308.551V227.885C399.718 240.06 413.427 249.328 428.76 254.846C444.094 260.364 460.565 261.955 476.672 259.474C492.778 256.993 508.007 250.52 520.97 240.644C533.933 230.768 544.218 217.804 550.885 202.934C557.553 188.064 560.391 171.762 559.143 155.513C557.894 139.265 552.597 123.588 543.735 109.911C534.873 96.235 522.729 84.9948 508.409 77.2159C494.089 69.437 478.05 65.3669 461.753 65.3768H388.885C388.885 17.6036 360.083 0.1792 360.083 0.1792H461.804C483.184 0.177519 504.355 4.38799 524.107 12.5701C543.859 20.7522 561.806 32.7456 576.922 47.8652C592.038 62.9848 604.027 80.9344 612.205 100.689C620.382 120.443 624.588 141.614 624.581 162.994Z" fill="#EADFFF"/>
<path d="M364.007 64.9292V292.75C343.762 277.611 327.327 257.957 316.009 235.352C304.691 212.747 298.802 187.814 298.81 162.534C298.81 159.619 298.886 156.73 299.04 153.841V1.13275e-05C307.57 -0.00502697 316.017 1.6707 323.899 4.93144C331.781 8.19217 338.943 12.974 344.976 19.0038C351.01 25.0335 355.796 32.1929 359.061 40.073C362.326 47.9531 364.007 56.3993 364.007 64.9292Z" fill="#0084FF"/>
<path fill-rule="evenodd" clip-rule="evenodd" d="M208.338 441.505C212.91 441.505 217.068 442.881 220.813 445.635C223.73 447.707 226.209 450.46 228.249 453.894V442.743H250.887V525.94C250.887 537.837 247.527 547.035 240.807 553.535C234.143 560.089 224.669 563.367 212.387 563.367C205.557 563.367 199.443 562.155 194.045 559.732C188.702 557.364 184.544 554.003 181.57 549.652L196.771 535.689C198.699 537.727 201.013 539.325 203.712 540.481C206.411 541.638 209.219 542.217 212.138 542.217C216.71 542.217 220.538 540.949 223.622 538.416C226.707 535.882 228.249 532.275 228.249 527.593V517.741C226.567 521.141 224.255 523.874 221.31 525.94C217.675 528.474 213.35 529.741 208.338 529.741C199.195 529.741 192.09 526.519 187.023 520.074C182.011 513.575 179.504 504.432 179.504 492.645V478.93C179.504 467.033 182.011 457.835 187.023 451.336C192.09 444.782 199.195 441.505 208.338 441.505ZM215.526 462.49C211.285 462.49 207.98 463.949 205.612 466.868C203.298 469.732 202.142 473.78 202.142 479.013V492.645C202.142 497.768 203.298 501.733 205.612 504.542C207.98 507.351 211.285 508.756 215.526 508.756C218.225 508.755 220.511 508.233 222.384 507.186C224.311 506.14 225.77 504.625 226.762 502.642C227.753 500.659 228.249 498.263 228.249 495.454V476.204L228.243 475.662C228.185 472.977 227.691 470.679 226.762 468.769C225.77 466.731 224.311 465.188 222.384 464.142C220.511 463.04 218.225 462.49 215.526 462.49Z" fill="#EADFFF"/>
<path fill-rule="evenodd" clip-rule="evenodd" d="M387.925 441.505C399.216 441.505 407.946 444.285 414.115 449.848C420.284 455.411 423.368 463.26 423.368 473.395V528.502H402.796V520.578C402.11 521.662 401.229 522.651 400.152 523.544C397.563 525.637 394.369 527.207 390.569 528.254C386.823 529.245 382.94 529.741 378.919 529.741C369.776 529.741 362.919 527.565 358.347 523.214C353.776 518.863 351.49 512.198 351.49 503.22C351.49 494.683 354.023 488.321 359.091 484.135C364.213 479.894 371.869 477.774 382.059 477.774H402.796V474.139C402.796 470.173 401.474 467.116 398.831 464.968C396.187 462.82 392.441 461.745 387.594 461.745C384.4 461.745 381.233 462.269 378.093 463.316C374.954 464.307 372.172 465.766 369.749 467.694L355.703 453.897C359.118 449.987 363.635 446.957 369.253 444.809C374.871 442.606 381.095 441.505 387.925 441.505ZM382.141 495.041C378.727 495.041 376.166 495.729 374.458 497.106C372.751 498.428 371.897 500.466 371.897 503.22C371.897 506.029 372.971 508.123 375.119 509.5C377.322 510.822 380.572 511.482 384.868 511.482C390.871 511.482 395.361 510.794 398.335 509.417C401.309 508.04 402.796 505.891 402.796 502.972V495.041H382.141Z" fill="#EADFFF"/>
<path fill-rule="evenodd" clip-rule="evenodd" d="M690.246 441.505C702.033 441.505 711.148 444.727 717.593 451.171C724.037 457.615 727.26 466.703 727.26 478.435V492.645C727.26 504.432 724.037 513.575 717.593 520.074C711.148 526.519 702.033 529.741 690.246 529.741C678.459 529.741 669.344 526.491 662.899 519.992C656.455 513.437 653.233 504.239 653.233 492.397V478.435C653.233 466.703 656.455 457.615 662.899 451.171C669.344 444.726 678.459 441.505 690.246 441.505ZM690.163 463.316C685.647 463.316 682.122 464.637 679.589 467.281C677.11 469.925 675.87 473.643 675.87 478.435V492.645C675.87 497.492 677.11 501.265 679.589 503.964C682.122 506.608 685.647 507.93 690.163 507.93C694.735 507.93 698.288 506.608 700.822 503.964C703.355 501.265 704.622 497.492 704.622 492.645V478.435C704.622 473.643 703.355 469.925 700.822 467.281C698.288 464.637 694.735 463.316 690.163 463.316Z" fill="#EADFFF"/>
<path fill-rule="evenodd" clip-rule="evenodd" d="M922.874 528.502H900.236V517.743C898.554 521.142 896.241 523.874 893.296 525.94C889.661 528.474 885.338 529.741 880.326 529.741C871.183 529.741 864.077 526.519 859.01 520.074C853.998 513.575 851.492 504.432 851.492 492.645V478.93C851.492 467.033 853.998 457.835 859.01 451.336C864.077 444.782 871.183 441.505 880.326 441.505C884.897 441.505 889.055 442.881 892.801 445.635C895.718 447.706 898.195 450.46 900.236 453.894V408.374H922.874V528.502ZM887.513 462.49C883.272 462.49 879.968 463.949 877.599 466.868C875.286 469.732 874.129 473.78 874.129 479.013V492.645C874.129 497.768 875.286 501.733 877.599 504.542C879.968 507.351 883.272 508.755 887.513 508.756C890.212 508.756 892.497 508.233 894.37 507.186C896.298 506.14 897.758 504.625 898.749 502.642C899.741 500.659 900.236 498.263 900.236 495.454V476.204C900.236 473.285 899.741 470.806 898.749 468.769C897.758 466.731 896.298 465.188 894.37 464.142C892.497 463.04 890.212 462.49 887.513 462.49Z" fill="#EADFFF"/>
<path d="M330.376 442.743H340.868V462.077H330.376V500.577C330.376 502.615 330.789 504.212 331.615 505.368C332.441 506.525 333.654 507.104 335.251 507.104H340.868V528.915H329.467C321.811 528.915 316.276 526.959 312.861 523.049C309.446 519.138 307.738 513.52 307.738 506.194V462.077H298.898V442.743H307.738V417.793H330.376V442.743Z" fill="#EADFFF"/>
<path d="M22.6378 528.502H0V442.743H22.6378V528.502Z" fill="#EADFFF"/>
<path fill-rule="evenodd" clip-rule="evenodd" d="M80.0213 408.374C95.1129 408.374 106.762 412.147 114.969 419.693C123.231 427.183 127.362 437.759 127.362 451.418V485.457C127.362 493.994 125.599 501.513 122.074 508.012C118.549 514.456 113.262 519.496 106.212 523.131C99.2165 526.711 90.4588 528.502 79.9387 528.502H40.2821V408.374H80.0213ZM62.9199 506.691H80.5169C87.9524 506.691 93.7085 504.9 97.7843 501.32C101.86 497.685 103.898 492.618 103.898 486.119V450.758C103.898 444.203 101.86 439.136 97.7843 435.556C93.7085 431.976 87.9526 430.186 80.5169 430.186H62.9199V506.691Z" fill="#EADFFF"/>
<path d="M165.991 528.502H143.353V442.743H165.991V528.502Z" fill="#EADFFF"/>
<path d="M289.516 528.502H266.879V442.743H289.516V528.502Z" fill="#EADFFF"/>
<path d="M463.236 500.163C463.236 502.201 463.815 503.799 464.972 504.955C466.183 506.112 467.891 506.691 470.094 506.691H473.895V528.502H462.328C455.443 528.502 450.101 526.519 446.3 522.553C442.5 518.587 440.599 512.997 440.599 505.781V408.374H463.236V500.163Z" fill="#EADFFF"/>
<path d="M552.97 488.514L575.939 408.374H594.114L617.083 488.514L632.532 408.374H655.831L628.153 528.502H606.837L585.522 444.561L563.215 528.502H541.899L514.222 408.374H537.521L552.97 488.514Z" fill="#EADFFF"/>
<path d="M787.039 441.505C790.619 441.505 793.841 442.082 796.705 443.239C799.625 444.341 802.159 445.993 804.307 448.196L791.087 466.62C790.041 465.519 788.692 464.692 787.039 464.142C785.442 463.591 783.597 463.316 781.504 463.316C776.932 463.316 773.379 464.802 770.846 467.777C768.367 470.696 767.128 474.772 767.128 480.005V528.502H742.838V442.743H767.128V454.392C769.197 450.873 771.675 448.009 774.563 445.8C778.364 442.936 782.523 441.505 787.039 441.505Z" fill="#EADFFF"/>
<path d="M832.608 500.163C832.608 502.201 833.186 503.799 834.343 504.955C835.554 506.112 837.262 506.691 839.465 506.691H843.266V528.502H831.7C824.815 528.502 819.472 526.519 815.671 522.553C811.871 518.587 809.97 512.997 809.97 505.781V408.374H832.608V500.163Z" fill="#EADFFF"/>
<path d="M22.6378 431.012H0V408.374H22.6378V431.012Z" fill="#EADFFF"/>
<path d="M165.991 431.012H143.353V408.374H165.991V431.012Z" fill="#EADFFF"/>
<path d="M289.516 431.012H266.879V408.374H289.516V431.012Z" fill="#EADFFF"/>
</svg>
